HIERARCHY
ROOT Hips
{
  OFFSET 265.287 66.7526 -254.649
  CHANNELS 6 Xposition Yposition Zposition Zrotation Xrotation Yrotation
  JOINT LeftUpLeg
  {
    OFFSET 8.64259 1.95398 -2.38835
    CHANNELS 3 Zrotation Xrotation Yrotation
    JOINT LeftLeg
    {
      OFFSET 43.7702 0 0
      CHANNELS 3 Zrotation Xrotation Yrotation
      JOINT LeftFoot
      {
        OFFSET 40.6238 0 0
        CHANNELS 3 Zrotation Xrotation Yrotation
        JOINT LeftToeBase
        {
          OFFSET 12.7242 0 0
          CHANNELS 3 Zrotation Xrotation Yrotation
          End Site
          {
            OFFSET 0 0 0
          }
        }
      }
    }
  }
  JOINT RightUpLeg
  {
    OFFSET -8.2249 1.95398 -2.59336
    CHANNELS 3 Zrotation Xrotation Yrotation
    JOINT RightLeg
    {
      OFFSET 43.5653 0 0
      CHANNELS 3 Zrotation Xrotation Yrotation
      JOINT RightFoot
      {
        OFFSET 40.6238 0 0
        CHANNELS 3 Zrotation Xrotation Yrotation
        JOINT RightToeBase
        {
          OFFSET 12.7242 0 0
          CHANNELS 3 Zrotation Xrotation Yrotation
          End Site
          {
            OFFSET 0 0 0
          }
        }
      }
    }
  }
  JOINT Spine
  {
    OFFSET 0.165834 0.87714 6.61349
    CHANNELS 3 Zrotation Xrotation Yrotation
    JOINT Spine1
    {
      OFFSET 7.38963 1.71661e-005 0
      CHANNELS 3 Zrotation Xrotation Yrotation
      JOINT Spine2
      {
        OFFSET 11.9445 1.14441e-005 0
        CHANNELS 3 Zrotation Xrotation Yrotation
        JOINT Spine3
        {
          OFFSET 14.7254 4.19617e-005 0
          CHANNELS 3 Zrotation Xrotation Yrotation
          JOINT Spine4
          {
            OFFSET 10.9679 0 0
            CHANNELS 3 Zrotation Xrotation Yrotation
            JOINT RightShoulder
            {
              OFFSET 2.46616 -1.6653 3.69651
              CHANNELS 3 Zrotation Xrotation Yrotation
              JOINT RightArm
              {
                OFFSET 13.0012 0 0
                CHANNELS 3 Zrotation Xrotation Yrotation
                JOINT RightForeArm
                {
                  OFFSET 28.7848 1.52588e-005 0
                  CHANNELS 3 Zrotation Xrotation Yrotation
                  JOINT RightHand
                  {
                    OFFSET 26.5688 1.52588e-005 0
                    CHANNELS 3 Zrotation Xrotation Yrotation
                    End Site
                    {
                      OFFSET 0 0 0
                    }
                  }
                }
              }
            }
            JOINT LeftShoulder
            {
              OFFSET 2.38034 -1.29275 -3.7523
              CHANNELS 3 Zrotation Xrotation Yrotation
              JOINT LeftArm
              {
                OFFSET 16.3182 6.10351e-005 0
                CHANNELS 3 Zrotation Xrotation Yrotation
                JOINT LeftForeArm
                {
                  OFFSET 27.0901 0 0
                  CHANNELS 3 Zrotation Xrotation Yrotation
                  JOINT LeftHand
                  {
                    OFFSET 24.5451 1.52588e-005 0
                    CHANNELS 3 Zrotation Xrotation Yrotation
                    End Site
                    {
                      OFFSET 0 0 0
                    }
                  }
                }
              }
            }
            JOINT Neck
            {
              OFFSET 5.0226 -0.0266342 0
              CHANNELS 3 Zrotation Xrotation Yrotation
              JOINT Head
              {
                OFFSET 6.69364 2.86102e-005 0
                CHANNELS 3 Zrotation Xrotation Yrotation
                End Site
                {
                  OFFSET 0 0 0
                }
              }
            }
          }
        }
      }
    }
  }
}
MOTION
Frames:	18
Frame Time:	0.0416667
76.2868 86.7663 91.8139 90.7018 -41.427 97.3343 179.406 22.2048 97.2557 -122.455 9.77275 0.359523 43.3187 -2.89463 13.4998 48.1781 -6.26101 -3.94481 170.709 29.3043 101.337 -57.4331 -15.4652 5.86919 70.8926 -4.54944 1.36343 35.7902 -0.951324 -1.21859 -0.148973 8.30973 -91.6728 10.2279 -1.06057 -3.23151 -1.44648 -1.20172 -3.18178 -23.9495 -0.0409857 -3.40069 -3.93682 -0.0409908 -3.40068 101.718 -49.4421 -82.8682 22.0837 -14.6457 8.65398 -2.45658 -0.781897 -57.1883 -17.0566 -0.370311 -2.7167 -83.9576 -53.0727 87.9202 -10.6586 20.9782 1.08515 6.68422 -5.62738 -55.302 21.6018 -1.08212 -9.03771 30.8543 3.68987 -6.77427 -18.5743 4.51417 13.4058 
99.2291 89.7786 114.403 90.9 -45.4945 92.2278 178.999 40.9206 89.4852 -100.09 -0.743635 1.38465 52.2482 1.56107 13.7616 47.4123 -5.8107 -1.45476 175.366 3.62245 92.0729 -45.3068 -16.5549 1.21643 66.731 -1.14638 6.99437 48.1492 -2.8536 0.777372 0.668928 8.05403 -90.8108 10.774 0.957694 -1.71561 -0.8978 0.881274 -1.75608 -23.4296 1.42903 -1.34855 -3.41698 1.42902 -1.34855 101.237 -47.0766 -83.6644 19.7364 -20.4203 -0.63583 -2.20298 3.92938 -72.5839 -13.7918 -0.0429114 -5.00336 -83.396 -51.9859 88.636 -19.8657 28.0428 15.4584 4.24576 0.166754 -40.4416 23.7483 -0.829504 -7.54415 24.699 1.39073 -6.34993 -16.8062 2.42569 10.0056 
122.128 95.2604 137.394 87.5846 -49.1773 88.7848 179.666 41.4922 89.491 -48.0948 10.7042 2.42623 46.9952 -3.62305 9.13735 46.806 -5.97536 -6.72677 176.631 -16.3075 91.2261 -31.9093 -16.6655 -3.14982 39.5611 10.6321 20.3042 37.1656 -1.04521 -3.51079 1.39138 7.27492 -90.2384 12.3309 2.65219 -0.769582 0.662332 2.61574 -0.885632 -21.8944 2.76077 0.0636845 -1.88173 2.76076 0.0636914 102.162 -46.0814 -82.1682 22.2864 -26.5915 4.5521 -6.75479 7.2907 -84.9959 -12.531 0.280009 -7.9114 -83.7908 -47.8466 87.6096 -30.9283 29.5826 35.2186 4.41348 0.993211 -41.6378 22.006 -0.863067 -7.94472 12.9443 -0.435588 -2.31547 -11.8987 0.0717633 1.1349 
143.41 95.3001 158.958 94.4124 -52.53 95.559 -174.935 29.8863 90.5046 -11.6687 10.0222 0.446458 31.7861 -9.78935 -1.4703 54.4279 -8.86778 -7.37745 179.99 -13.7011 90.6902 -74.1062 -17.4622 -5.59342 40.3004 9.67419 12.6019 37.6007 -1.40637 2.37155 1.52268 7.72736 -90.1829 11.4305 2.94436 -0.664337 -0.237279 2.91225 -0.793392 -22.7997 3.00779 0.252117 -2.78709 3.0078 0.252116 102.086 -45.449 -82.2933 25.3484 -28.3708 10.3608 -10.2182 6.54075 -86.8198 -13.2335 0.135063 -6.51532 -83.6166 -45.4533 87.6168 -35.2619 24.6921 41.1677 7.08781 0.717134 -45.6263 20.3417 -0.950816 -8.65319 11.7986 0.348494 -2.01488 -9.88221 0.701244 1.26826 
164.497 90.419 179.825 100.982 -46.3689 98.1925 -173.931 26.3965 84.2885 -39.4596 22.9268 -1.62438 53.3984 -1.02156 22.3536 35.3642 -1.73103 -5.92695 175.076 2.39617 88.0088 -111.511 -11.0331 -3.96127 44.2086 6.36846 12.1264 30.5437 0.544958 -7.99835 0.541378 8.46315 -89.6822 9.94471 1.22334 0.530712 -1.72575 1.24551 0.476349 -24.2634 1.00728 0.873858 -4.25076 1.00729 0.873858 102.774 -48.6159 -81.1989 28.6325 -21.1657 19 -9.91235 1.54851 -74.2722 -16.8182 -0.061805 -4.84879 -82.1365 -46.4047 90.0627 -20.3581 24.6984 21.4709 3.0806 -3.57074 -43.758 19.9455 -1.00693 -9.01314 25.0778 2.61814 -0.569412 -23.5355 4.04127 -7.35023 
184.202 86.5379 199.803 101.258 -39.6804 92.5987 -177.697 12.7431 75.9782 -58.8378 25.6983 -0.205688 70.0864 11.8281 30.972 46.9047 -5.58065 0.0712115 176.614 31.4029 84.0454 -114.7 -11.959 -3.72079 41.2789 7.59145 12.3227 41.6052 -1.88592 -2.85158 -0.726647 8.62456 -88.8883 9.62339 -0.946078 2.31657 -2.04972 -0.843227 2.35592 -24.5733 -1.59854 1.92537 -4.56066 -1.59853 1.92537 103.277 -51.1864 -80.4534 28.1834 -15.45 22.1135 -9.12802 -9.94636 -51.7601 -18.1757 -0.617101 -1.25364 -82.2868 -48.8189 90.0278 -5.2724 12.8764 -9.16134 6.26033 -0.158106 -40.2696 25.5269 -1.28672 -9.09591 32.2235 3.09362 1.61492 -29.3889 5.18426 -12.5355 
208.683 92.0667 221.61 110.841 -35.0167 113.655 -165.801 -7.56964 110.147 -48.1587 29.3914 9.1202 58.5418 1.14326 10.5527 53.2831 -6.57132 5.33602 169.7 23.6258 106.807 -66.9305 -12.1351 1.2199 49.6923 5.7963 9.51486 45.5909 -2.44968 0.500759 -1.15793 9.177 -90.7048 8.62939 -2.62041 -1.43938 -3.03747 -2.68132 -1.32261 -25.5964 -2.0657 -2.16032 -5.58377 -2.06571 -2.16033 99.3036 -48.6966 -86.7715 30.2437 -13.2362 32.1208 -10.6654 -23.8982 -37.6361 -12.6552 -0.333745 -2.23624 -82.8907 -48.9879 89.107 -5.27066 9.83637 -15.6051 4.9046 -12.7151 -60.0548 26.9649 -3.05199 -16.0012 12.2214 3.0796 14.0611 -8.0039 0.351203 -20.818 
232.816 93.7714 241.906 120.309 -26.5521 129.094 -149.451 -35.6739 127.815 -45.9518 22.326 11.4138 40.9176 -6.20701 1.78336 79.8517 -20.31 -9.3256 -179.938 3.60072 103.676 -12.6151 -3.48542 4.35715 35.0339 12.381 18.8924 73.8937 -5.48882 6.60172 -1.59211 10.3207 -91.6118 6.15915 -3.86132 -3.02525 -5.5093 -3.99067 -2.85234 -28.0417 -2.77439 -4.0452 -8.02907 -2.77441 -4.04521 90.6758 -49.4311 -100.108 30.3774 -5.53088 41.4448 -8.19132 -22.7664 -30.6294 -9.51058 -0.188722 -2.99678 -79.799 -46.187 93.7937 1.25643 9.08606 -10.9749 4.11732 -4.03821 -97.1209 18.4263 -1.56129 -11.6111 24.3094 7.3466 22.4708 -22.0106 4.53056 -32.7852 
249.476 86.3469 258.509 124.474 -25.6448 128.891 -148.351 -47.3001 134.761 -55.5636 6.21476 4.75529 37.1559 -3.00926 -6.4204 111.557 -41.8996 -18.8428 177.35 5.58341 102.479 -11.7959 0.500822 5.42678 56.7318 3.1754 24.6505 -93.616 22.6182 6.22051 -2.71365 10.6104 -91.1331 5.59229 -5.89426 -2.08225 -6.06653 -5.98016 -1.82004 -28.6707 -4.99583 -3.76038 -8.65806 -4.99583 -3.76038 76.104 -50.2995 -121.718 24.6936 -0.310636 53.4784 -15.4267 -21.8627 -38.9624 -4.04392 -0.0808589 -3.30594 -73.9191 -55.8093 102.461 11.2383 -4.46563 8.44371 0.133404 -5.68904 -109.112 24.2986 -0.594728 -6.49663 40.6165 22.5264 36.3032 -41.9961 21.6743 -52.1826 
262.587 77.6947 271.338 129.019 -23.7258 133.983 -129.571 -60.5896 158.156 -59.1296 -43.6925 0.0341289 30.0731 1.59988 -32.7718 102.014 -57.2904 -48.7686 170.804 4.10223 110.174 -5.16011 -39.0445 2.33801 62.295 3.12681 -9.85915 27.1749 -30.0953 152.408 -3.20082 11.2837 -91.4886 4.19791 -6.99763 -2.85036 -7.4566 -7.11622 -2.53838 -30.0788 -5.81758 -4.8256 -10.0661 -5.81758 -4.8256 65.1741 -49.2404 -137.723 15.3126 4.2516 70.29 -55.7832 -17.7652 -77.0604 1.7536 -0.146281 -11.2064 -60.9182 -76.8869 116.13 19.5523 -8.21887 24.455 0.882455 -10.3305 -77.8907 22.1145 -0.845678 -7.81595 60.5015 34.1559 35.7364 -64.6234 36.9131 -51.7817 
272.598 77.8024 281.054 148.885 -13.1768 140.01 -37.9352 -61.6905 -116.059 147.006 -68.3712 -171.457 8.47805 0.218739 -39.6057 101.532 -61.7941 -54.9142 160.666 -15.2475 104.043 32.2514 -86.9784 38.1412 72.8565 21.2939 -48.5425 28.1507 -40.8761 160.129 -3.34849 12.8797 -90.4493 1.0853 -6.85247 -1.1269 -10.5674 -6.89534 -0.822826 -33.2267 -6.19587 -3.14156 -13.2141 -6.19586 -3.14155 64.8743 -39.9413 -144.173 16.4079 12.0063 74.9424 -138.472 -2.46675 -96.7596 -0.574091 -0.30218 -13.4487 -68.8913 -75.9976 107.174 -1.28638 3.3554 37.4285 -1.16792 -5.65319 -43.0424 20.0237 -0.292527 -5.3831 18.6251 35.5641 68.8356 -16.8136 26.6351 -94.6257 
286.742 80.5896 294.872 165.251 -13.3871 146.725 -12.4442 -31.6362 -108.298 176.316 -55.5778 -179.425 13.303 3.32779 -19.9964 123.148 -58.5878 -28.947 149.948 -28.7397 95.5387 168.341 -85.9891 173.515 76.2425 19.8351 -40.3469 34.7247 -32.4835 171.566 -2.43921 13.1758 -89.6757 0.510638 -4.74337 0.427992 -11.152 -4.71994 0.636793 -33.7527 -4.65223 -1.02049 -13.7401 -4.65223 -1.02049 67.5475 -29.3373 -148.088 20.8407 20.0695 76.5085 -162.654 7.42571 -97.9559 -6.11844 -0.834755 11.605 -85.1369 -75.3495 88.471 -13.6814 2.64029 56.5994 1.95038 -3.7011 -38.8302 17.5963 -0.705721 -7.9685 -20.2605 19.0468 92.1771 15.118 0.590409 -102.828 
301.064 82.8792 306.06 157.572 -14.2438 150.705 -18.761 -28.9232 -113.822 -179.981 -54.1727 -179.954 14.374 2.74828 -18.4886 132.215 -54.136 -16.5301 139.602 -29.8047 99.4353 158.866 -87.5447 163.865 78.0144 17.9447 -34.428 41.6589 -1.66289 174.04 -2.86792 12.7846 -90.7011 1.2479 -5.98987 -1.55971 -10.4098 -6.05268 -1.29368 -33.0274 -5.24371 -3.29181 -13.0147 -5.24373 -3.29182 74.8033 -14.8975 -149.055 28.8028 28.9516 75.2534 -167.911 13.4827 -94.2753 -7.6515 -1.37844 16.6337 -103.887 -81.9017 68.7767 -5.80193 2.17229 62.9122 4.37222 -2.91801 -46.5201 16.5981 0.21953 -2.51429 -26.4006 14.0243 99.1444 20.811 -4.09314 -101.316 
313.908 84.462 315.045 149.063 -9.90479 153.499 -26.3083 -25.2616 -117.152 179.897 -53.67 -179.924 14.0768 0.471995 -18.8668 136.514 -50.6973 -9.89574 122.414 -34.5497 96.9296 165.559 -84.2125 170.33 79.6607 17.4364 -31.2081 54.6131 42.8311 164.714 -3.70654 12.9871 -91.6923 0.732236 -8.02987 -3.60786 -10.9178 -8.18076 -3.24921 -33.5574 -6.57503 -5.85919 -13.5448 -6.57502 -5.85918 81.8657 -2.48461 -149.202 37.6456 34.7242 71.5111 -169.89 17.7355 -90.3857 -8.4504 -1.4611 15.631 126.905 -85.4672 -59.3846 14.2542 5.15874 72.88 35.9172 1.3533 -75.4008 19.772 0.0699325 -23.7203 -28.5958 10.0735 101.976 23.758 -6.21254 -96.142 
325.826 85.3079 323.253 142.388 -7.24937 156.535 -31.794 -22.3088 -120.351 179.941 -53.8084 -179.918 13.7929 -1.52781 -19.2053 138.94 -48.1563 -5.81611 96.8002 -38.8515 86.1318 173.509 -72.3098 177.788 81.1279 17.6714 -28.5701 148.06 70.8055 72.6576 -4.28458 13.1039 -92.5367 0.375855 -9.49 -5.35123 -11.2695 -9.71597 -4.9261 -33.9045 -7.44693 -7.95829 -13.8918 -7.44692 -7.95828 86.7341 5.73083 -149.735 43.2827 37.5143 68.8994 -170.276 21.0972 -87.1597 -8.9731 -1.38637 13.3571 100.892 -78.8995 -84.2018 31.4177 10.5194 81.347 -172.073 -12.6147 -86.5242 -4.22005 -2.45626 -109.721 -30.6109 5.83961 102.74 26.737 -7.91938 -90.1662 
336.097 85.135 330.664 137.107 -5.9022 159.342 -35.8677 -19.9155 -123.223 179.986 -54.154 -179.933 13.3137 -3.12873 -19.6422 140.442 -46.2798 -3.11909 65.4403 -38.0874 69.2887 176.313 -55.5278 179.964 81.8869 18.1527 -25.4212 -165.68 39.3419 26.6324 -4.67721 13.1373 -93.2458 0.190464 -10.5305 -6.8014 -11.4529 -10.8189 -6.32896 -34.0652 -8.00828 -9.64899 -14.0525 -8.00828 -9.64899 90.0554 11.1438 -150.507 46.2251 38.941 67.8407 -170.064 23.905 -84.4917 -9.32775 -1.25693 10.9522 95.2011 -74.9257 -89.0537 46.0464 16.6777 86.0697 177.652 -14.346 -71.8596 -0.606082 -0.562675 -88.9005 -32.4011 1.90978 102.096 29.3786 -8.9803 -83.9348 
344.156 84.3186 337.106 132.888 -5.54497 161.773 -39.1768 -18.07 -125.772 179.927 -54.4875 -179.89 12.6181 -4.23708 -20.1631 141.371 -44.9079 -1.30804 39.8193 -32.5077 55.7669 177.474 -40.3438 -179.429 81.7371 18.3278 -22.1236 -159.713 19.3698 20.3812 -4.93328 13.0939 -93.8449 0.170285 -11.2623 -8.0046 -11.4731 -11.6026 -7.49906 -34.0515 -8.35043 -11.0099 -14.0388 -8.35043 -11.0099 92.2175 14.599 -151.446 47.077 39.7108 68.2077 -169.618 26.3036 -82.2374 -9.56882 -1.11003 8.67661 92.2858 -72.3689 -91.3467 59.2467 22.6543 86.9037 176.402 -20.4871 -63.7887 0.311319 -2.2322 -81.549 -34.0468 -1.50833 100.542 31.5547 -9.44952 -77.9826 
350.093 83.3694 342.459 129.5 -5.93471 163.811 -42.0288 -16.6677 -128.138 179.929 -54.6815 -179.886 11.9063 -4.81778 -20.5674 141.898 -43.9358 -0.126735 23.4472 -27.0562 47.8857 177.957 -26.4505 -179.341 81.2663 17.4091 -23.0799 -157.996 9.99652 18.4168 -5.08513 12.984 -94.3561 0.299492 -11.7602 -9.00564 -11.3455 -12.1437 -8.47779 -33.8835 -8.53058 -12.1069 -13.8708 -8.53057 -12.1069 93.455 16.6 -152.497 46.3131 40.0929 69.776 -169.081 28.3798 -80.2899 -9.72785 -0.959656 6.57243 90.4023 -70.6462 -92.7571 71.2989 27.5349 84.8554 174.372 -26.6351 -59.2691 0.815323 -2.4204 -76.949 -35.6199 -4.38397 98.4018 33.2497 -9.47461 -72.5022 
